<?xml version="1.0" encoding="UTF-8"?>
<svg version="1.1" xmlns="http://www.w3.org/2000/svg" width="512" height="512">
<path d="M0 0 C1.02471405 -0.00637985 2.0494281 -0.0127597 3.10519409 -0.01933289 C4.21146149 -0.02044571 5.31772888 -0.02155853 6.45751953 -0.02270508 C7.59561066 -0.02603348 8.73370178 -0.02936188 9.90628052 -0.03279114 C12.31544592 -0.03785705 14.72461834 -0.04019957 17.13378906 -0.04003906 C20.81863994 -0.04222347 24.50319048 -0.0603773 28.18798828 -0.0793457 C30.52783101 -0.0822801 32.86767516 -0.08426458 35.20751953 -0.08520508 C36.86084793 -0.09598335 36.86084793 -0.09598335 38.5475769 -0.10697937 C39.57859528 -0.10390274 40.60961365 -0.10082611 41.671875 -0.09765625 C43.02730911 -0.09979378 43.02730911 -0.09979378 44.41012573 -0.10197449 C47.29622646 0.17728055 49.38489051 0.82665548 51.96533203 2.14526367 C54.34659722 5.71716146 54.21420542 7.24004222 54.21142769 11.48024273 C54.21373538 12.12866301 54.21604307 12.77708329 54.21842068 13.44515267 C54.22374356 15.63294498 54.21471785 17.82044698 54.20584106 20.00822449 C54.20671266 21.5864881 54.20846281 23.16475142 54.2110194 24.7430132 C54.21550588 29.09167314 54.20747144 33.44023516 54.19746327 37.78888261 C54.18884976 42.47394526 54.19174744 47.1590021 54.19326782 51.84407043 C54.19431801 59.96515912 54.18802749 68.08621575 54.17679214 76.20729637 C54.16055815 87.94910255 54.15533129 99.69089318 54.15281616 111.43270937 C54.14843575 130.48167833 54.13511729 149.53063018 54.11621094 168.57958984 C54.09786108 187.08707595 54.0837002 205.59455742 54.07519531 224.10205078 C54.07466987 225.24229492 54.07414442 226.38253906 54.07360305 227.55733605 C54.07099303 233.27743934 54.0684656 238.99754266 54.06597924 244.717646 C54.04523598 292.19353038 54.01000105 339.66939619 53.96533203 387.14526367 C55.20669922 387.11045898 56.44806641 387.0756543 57.72705078 387.03979492 C59.36896429 387.01164783 61.01089249 386.98434866 62.65283203 386.95776367 C63.87776367 386.92005859 63.87776367 386.92005859 65.12744141 386.8815918 C69.94078246 386.82313016 73.02336925 387.05855909 76.96533203 390.14526367 C78.81565193 391.99558357 78.25673335 394.56998449 78.39111328 397.03979492 C77.7524521 400.19794516 76.52076897 401.1966369 73.96533203 403.14526367 C71.07457309 403.537188 68.56560387 403.68286343 65.67562866 403.64862823 C64.40422291 403.65734888 64.40422291 403.65734888 63.1071322 403.6662457 C60.24756932 403.68092264 57.38885447 403.66692471 54.52929688 403.65319824 C52.46629076 403.65780411 50.40328791 403.66415491 48.34029198 403.67210722 C42.65617625 403.68886673 36.97232779 403.68052411 31.28821087 403.66816235 C25.16406596 403.65914121 19.03996818 403.67306696 12.91583252 403.68408203 C1.60703842 403.70087237 -9.70164625 403.69937277 -21.01043767 403.68843616 C-31.45677638 403.67838294 -41.90308371 403.67574292 -52.34942627 403.68052673 C-53.0417442 403.68083227 -53.73406213 403.68113781 -54.4473594 403.68145261 C-57.25754285 403.68269792 -60.06772628 403.68397152 -62.8779097 403.68529167 C-89.25184258 403.69753394 -115.62572092 403.6864239 -141.99964538 403.66490408 C-165.44298942 403.64592095 -188.88624656 403.64761943 -212.32958984 403.66674805 C-238.65457938 403.68815602 -264.97952071 403.6966658 -291.30451775 403.68429899 C-294.10964838 403.68301608 -296.91477902 403.68176472 -299.71990967 403.68052673 C-300.41062921 403.68021042 -301.10134876 403.67989411 -301.8129992 403.67956822 C-312.25402846 403.67501396 -322.69502292 403.68034755 -333.13604736 403.69044495 C-345.00527076 403.70186615 -356.87439147 403.69867035 -368.74361086 403.67732197 C-374.8037909 403.66678252 -380.8637942 403.66273895 -386.92397308 403.67591858 C-392.46554679 403.68778841 -398.00677901 403.68136958 -403.54832149 403.66000837 C-405.5590235 403.65551928 -407.56975404 403.65785982 -409.5804379 403.66751152 C-412.30236376 403.67958074 -415.023102 403.66729765 -417.7449646 403.64862823 C-418.53548588 403.6579929 -419.32600715 403.66735756 -420.14048362 403.67700601 C-423.6986889 403.62783605 -425.65598065 403.43520782 -428.52176857 401.24100065 C-431.06913942 397.71226681 -430.50915584 395.41565451 -430.03466797 391.14526367 C-428.2230353 388.47094878 -427.1570572 388.18606008 -424.03466797 387.14526367 C-422.62641904 387.06504369 -421.21469566 387.0376039 -419.80419922 387.04760742 C-419.00175781 387.05083008 -418.19931641 387.05405273 -417.37255859 387.05737305 C-416.53917969 387.06575195 -415.70580078 387.07413086 -414.84716797 387.08276367 C-413.57969727 387.08953125 -413.57969727 387.08953125 -412.28662109 387.09643555 C-410.20260642 387.10820964 -408.1186282 387.12614477 -406.03466797 387.14526367 C-406.03743335 386.45835072 -406.04019873 385.77143776 -406.0430479 385.06370926 C-406.10927989 368.35523286 -406.15893494 351.64679799 -406.19010448 334.93822098 C-406.20557821 326.85809873 -406.22667732 318.77806408 -406.26098633 310.69799805 C-406.29087329 303.65600932 -406.3102393 296.61408403 -406.31693345 289.57203364 C-406.32084693 285.84275509 -406.33005445 282.113658 -406.35185814 278.38443756 C-406.37599231 274.22292506 -406.37663842 270.06172872 -406.37524414 265.90014648 C-406.38602997 264.66152863 -406.3968158 263.42291077 -406.40792847 262.14675903 C-406.40174248 260.44726608 -406.40174248 260.44726608 -406.39543152 258.71343994 C-406.3981969 257.72896503 -406.40096228 256.74449013 -406.40381145 255.73018265 C-405.96912109 252.68627311 -405.16383044 251.33777432 -403.03466797 249.14526367 C-400.04534165 248.14882156 -398.03159852 248.00731703 -394.90820312 247.98413086 C-393.86346832 247.97452332 -392.81873352 247.96491577 -391.74234009 247.95501709 C-390.61419891 247.95076721 -389.48605774 247.94651733 -388.32373047 247.94213867 C-387.1634433 247.9364386 -386.00315613 247.93073853 -384.80770874 247.92486572 C-382.35147006 247.91541444 -379.89521869 247.90888124 -377.43896484 247.9050293 C-373.68157856 247.89532029 -369.92473842 247.86429587 -366.16748047 247.83276367 C-363.78206705 247.82623394 -361.39664972 247.82098336 -359.01123047 247.81713867 C-357.3250914 247.79861847 -357.3250914 247.79861847 -355.60488892 247.77972412 C-354.55384979 247.78272522 -353.50281067 247.78572632 -352.41992188 247.78881836 C-351.03784042 247.78334991 -351.03784042 247.78334991 -349.62783813 247.777771 C-346.48391309 248.22331423 -344.59722671 249.30015392 -342.03466797 251.14526367 C-340.742469 253.72966161 -340.91170799 255.57808527 -340.91441345 258.47293091 C-340.91235146 260.16829987 -340.91235146 260.16829987 -340.9102478 261.8979187 C-340.91564072 263.76663132 -340.91564072 263.76663132 -340.92114258 265.6730957 C-340.92099655 266.98036621 -340.92085052 268.28763672 -340.92070007 269.63452148 C-340.92041246 273.22521129 -340.9263033 276.81586787 -340.93327403 280.40654993 C-340.93951363 284.15684498 -340.94011185 287.90714074 -340.94129944 291.65744019 C-340.94441096 298.76182399 -340.95262194 305.86619245 -340.96264893 312.97056949 C-340.97381561 321.05752156 -340.97932192 329.14447435 -340.98434436 337.2314322 C-340.9948047 353.86938642 -341.01314796 370.50731952 -341.03466797 387.14526367 C-329.81466797 387.14526367 -318.59466797 387.14526367 -307.03466797 387.14526367 C-307.05561523 381.59230469 -307.0765625 376.0393457 -307.09814453 370.31811523 C-307.16431609 352.0056576 -307.20876754 333.69319536 -307.24191666 315.38064957 C-307.26255582 304.27380538 -307.29070231 293.16707432 -307.33642578 282.06030273 C-307.37625206 272.38142821 -307.40209093 262.70263559 -307.41102195 253.0236814 C-307.41624382 247.89709571 -307.42854527 242.77074439 -307.4575882 237.6442337 C-307.48469078 232.82125495 -307.49312341 227.99860766 -307.48709869 223.17556 C-307.48820124 221.40340882 -307.4961858 219.63124682 -307.51148987 217.85916138 C-307.53133759 215.44290869 -307.52662697 213.02791397 -307.51568604 210.6116333 C-307.5273374 209.90735018 -307.53898877 209.20306706 -307.5509932 208.47744203 C-307.50976492 205.11823174 -307.23732048 203.40974395 -305.16865253 200.70994091 C-302.42027604 198.69478006 -300.78640514 198.64412113 -297.39575195 198.64355469 C-296.26455429 198.63417374 -295.13335663 198.62479279 -293.96788025 198.61512756 C-292.14275658 198.63197853 -292.14275658 198.63197853 -290.28076172 198.64916992 C-289.02836197 198.64771469 -287.77596222 198.64625946 -286.48561096 198.64476013 C-283.83807489 198.6464203 -281.19197533 198.6559096 -278.54467773 198.67871094 C-275.15265592 198.70712546 -271.76153354 198.70434914 -268.36944485 198.69162083 C-265.13149241 198.68299329 -261.89368595 198.6981074 -258.65576172 198.71166992 C-257.43698837 198.70873428 -256.21821503 198.70579865 -254.96250916 198.70277405 C-253.83446365 198.71545822 -252.70641815 198.7281424 -251.54418945 198.74121094 C-250.55031723 198.74661392 -249.55644501 198.75201691 -248.53245544 198.75758362 C-245.62144951 199.20939905 -244.75620595 199.79612005 -243.03466797 202.14526367 C-241.86814659 205.6448278 -241.89925697 208.77616667 -241.91441345 212.41545105 C-241.91313181 213.53410576 -241.91313181 213.53410576 -241.91182429 214.67535955 C-241.91017353 217.18122095 -241.91568426 219.68701583 -241.92114258 222.19287109 C-241.92142456 223.98639423 -241.92126649 225.77991748 -241.92070007 227.57344055 C-241.92041254 232.44915053 -241.92630218 237.32483603 -241.93327403 242.2005403 C-241.93951487 247.29346706 -241.94011195 252.38639435 -241.94129944 257.47932434 C-241.94441059 267.12653935 -241.95262109 276.77374306 -241.96264893 286.42095309 C-241.97381675 297.40267435 -241.97932221 308.38439613 -241.98434436 319.36612165 C-241.99480387 341.9591767 -242.01314668 364.55221626 -242.03466797 387.14526367 C-230.81466797 387.14526367 -219.59466797 387.14526367 -208.03466797 387.14526367 C-208.04466072 381.81829597 -208.04466072 381.81829597 -208.05485535 376.38371277 C-208.11451116 343.84205181 -208.1593187 311.30039844 -208.18786396 278.7586949 C-208.19161622 274.49651915 -208.19549918 270.23434353 -208.19946289 265.97216797 C-208.20024982 265.1236203 -208.20103675 264.27507264 -208.20184753 263.40081141 C-208.21491311 249.64851642 -208.23857327 235.89625892 -208.26612636 222.14398619 C-208.29414855 208.04028927 -208.31083747 193.93661204 -208.31693345 179.83288842 C-208.32105653 171.12518205 -208.33409409 162.41758164 -208.35841737 153.70990787 C-208.37423527 147.74444242 -208.37907732 141.77903201 -208.3751721 135.8135471 C-208.37324437 132.36812432 -208.37626697 128.92288715 -208.39228439 125.4774971 C-208.40711008 121.74743603 -208.40365767 118.01783624 -208.39543152 114.2877655 C-208.40417004 113.19147471 -208.41290857 112.09518392 -208.4219119 110.96567219 C-208.41593875 109.97041471 -208.4099656 108.97515722 -208.40381145 107.94974041 C-208.40495062 107.08815498 -208.40608978 106.22656955 -208.40726346 105.33887547 C-207.95035125 102.64885901 -207.19843342 101.76366253 -205.03466797 100.14526367 C-202.4921875 99.76431274 -202.4921875 99.76431274 -199.41748047 99.75708008 C-198.26618652 99.7476236 -197.11489258 99.73816711 -195.92871094 99.72842407 C-194.06303467 99.73753311 -194.06303467 99.73753311 -192.15966797 99.74682617 C-190.88365723 99.74395599 -189.60764648 99.74108582 -188.29296875 99.73812866 C-185.59262681 99.73608533 -182.89309716 99.74012976 -180.19287109 99.75415039 C-176.73247567 99.77124278 -173.27277826 99.7614006 -169.81240845 99.743433 C-166.51146991 99.72998351 -163.21061561 99.73940123 -159.90966797 99.74682617 C-158.66588379 99.74075348 -157.42209961 99.73468079 -156.140625 99.72842407 C-154.98933105 99.73788055 -153.83803711 99.74733704 -152.65185547 99.75708008 C-151.63720215 99.75946686 -150.62254883 99.76185364 -149.57714844 99.76431274 C-146.555249 100.2170971 -145.86898368 100.75654671 -144.03466797 103.14526367 C-143.66207248 105.33887547 -143.66207248 105.33887547 -143.66552448 107.94974041 C-143.65955134 108.9449979 -143.65357819 109.94025539 -143.64742404 110.96567219 C-143.65616257 112.06196299 -143.66490109 113.15825378 -143.67390442 114.2877655 C-143.67134114 115.45005765 -143.66877787 116.61234979 -143.66613692 117.80986291 C-143.6620415 121.04126552 -143.6714487 124.27230946 -143.6864711 127.50366962 C-143.69940169 130.98626705 -143.69504412 134.46884712 -143.69276428 137.95146179 C-143.69118966 143.98704703 -143.70061857 150.02253513 -143.7174778 156.05809593 C-143.74183766 164.78453504 -143.74966997 173.51092709 -143.75344177 182.23739652 C-143.760011 196.39478187 -143.77998492 210.55211543 -143.80834961 224.70947266 C-143.835878 238.46370179 -143.85711755 252.21791686 -143.86987305 265.97216797 C-143.87066122 266.81968654 -143.87144939 267.66720512 -143.87226144 268.54040607 C-143.8761765 272.79207031 -143.87996763 277.04373466 -143.88369715 281.29539907 C-143.91480773 316.5787257 -143.96848078 351.86198645 -144.03466797 387.14526367 C-132.81466797 387.14526367 -121.59466797 387.14526367 -110.03466797 387.14526367 C-110.04466072 382.80214775 -110.04466072 382.80214775 -110.05485535 378.37129211 C-110.11454042 351.82564583 -110.15933311 325.28000118 -110.18786396 298.73430361 C-110.19161612 295.25581165 -110.19549908 291.77731985 -110.19946289 288.29882812 C-110.20024982 287.60631705 -110.20103675 286.91380598 -110.20184753 286.20030972 C-110.21490485 274.98423967 -110.23856047 263.7682157 -110.26612636 252.552173 C-110.29417152 241.04523293 -110.31061775 229.53832531 -110.31693345 218.03135175 C-110.32084988 211.56731118 -110.33007651 205.10337517 -110.35185814 198.63936806 C-110.37218421 192.55818532 -110.37850958 186.47715045 -110.37399101 180.39593697 C-110.37481795 178.16141202 -110.38080655 175.92688225 -110.39228439 173.69238663 C-110.40716757 170.64612593 -110.40363662 167.60042661 -110.39543152 164.55415344 C-110.40417004 163.66601765 -110.41290857 162.77788185 -110.4219119 161.86283284 C-110.38768696 157.175265 -110.1858503 153.8965107 -107.03466797 150.14526367 C-104.45422363 149.52380371 -104.45422363 149.52380371 -101.32568359 149.5300293 C-99.56871155 149.51607117 -99.56871155 149.51607117 -97.77624512 149.50183105 C-95.87775818 149.52642395 -95.87775818 149.52642395 -93.94091797 149.55151367 C-91.99360779 149.55145325 -91.99360779 149.55145325 -90.00695801 149.5513916 C-87.25951381 149.55304502 -84.51288543 149.57174402 -81.765625 149.60327148 C-78.24464082 149.64295085 -74.7247252 149.64731734 -71.20355988 149.63980865 C-67.84504905 149.63600036 -64.48687587 149.6568175 -61.12841797 149.67651367 C-59.86276001 149.67671509 -58.59710205 149.6769165 -57.29309082 149.67712402 C-55.53611877 149.70099182 -55.53611877 149.70099182 -53.74365234 149.7253418 C-52.71123413 149.73376099 -51.67881592 149.74218018 -50.6151123 149.75085449 C-47.58573214 150.21388147 -46.89890926 150.78130916 -45.03466797 153.14526367 C-44.66207248 155.01827401 -44.66207248 155.01827401 -44.66552448 157.16887188 C-44.65955134 157.98995959 -44.65357819 158.8110473 -44.64742404 159.65701646 C-44.65616257 160.55875983 -44.66490109 161.46050321 -44.67390442 162.38957214 C-44.67134114 163.34768667 -44.66877787 164.3058012 -44.66613692 165.2929495 C-44.66117819 168.51757135 -44.67772656 171.74172956 -44.6940918 174.96630859 C-44.69493762 177.27214039 -44.69446381 179.577973 -44.69276428 181.88380432 C-44.69190115 188.1562242 -44.70957847 194.42847308 -44.73048615 200.70085311 C-44.74919993 207.25118764 -44.75099921 213.8015258 -44.75456238 220.35188293 C-44.76233695 231.35034156 -44.781594 242.34874005 -44.80834961 253.34716797 C-44.835881 264.67626633 -44.85711907 276.00534761 -44.86987305 287.33447266 C-44.87066122 288.03264145 -44.87144939 288.73081025 -44.87226144 289.45013567 C-44.87617652 292.95259633 -44.87996765 296.45505712 -44.88369715 299.95751798 C-44.91480412 329.02014194 -44.96847443 358.08269908 -45.03466797 387.14526367 C-33.81466797 387.14526367 -22.59466797 387.14526367 -11.03466797 387.14526367 C-11.0413298 382.36842102 -11.04799164 377.59157837 -11.05485535 372.66998291 C-11.11451093 328.89863017 -11.15931859 285.12728222 -11.18786396 241.35589774 C-11.19161623 235.62292589 -11.19549918 229.88995413 -11.19946289 224.15698242 C-11.20024982 223.01561682 -11.20103675 221.87425122 -11.20184753 220.69829878 C-11.21491317 202.20025404 -11.23857337 183.70223718 -11.26612636 165.204209 C-11.29414836 146.23354325 -11.31083743 127.26289213 -11.31693345 108.29220653 C-11.32105656 96.57959372 -11.33409436 84.86705969 -11.35841737 73.15447113 C-11.37423502 65.13044158 -11.37907736 57.10645296 -11.3751721 49.08240893 C-11.37324435 44.4480495 -11.37626747 39.81382805 -11.39228439 35.17949295 C-11.40682848 30.94050791 -11.4076563 26.70175432 -11.39736465 22.46275887 C-11.39609172 20.92568112 -11.39994376 19.38858922 -11.40931752 17.85153952 C-11.42128681 15.76850351 -11.41491173 13.6863125 -11.40381145 11.60329056 C-11.4055202 9.86493089 -11.4055202 9.86493089 -11.40726346 8.09145284 C-10.99343266 4.81920758 -10.35346809 3.45632455 -8.03466797 1.14526367 C-5.06457963 0.15523423 -3.09971779 0.01309876 0 0 Z " fill="#22A8FE" transform="translate(432.03466796875,108.854736328125)"/>
<path d="M0 0 C1.15129395 -0.00945648 2.30258789 -0.01891296 3.48876953 -0.02865601 C5.3544458 -0.01954697 5.3544458 -0.01954697 7.2578125 -0.01025391 C9.17182861 -0.01455917 9.17182861 -0.01455917 11.12451172 -0.01895142 C13.82485366 -0.02099475 16.52438331 -0.01695032 19.22460938 -0.00292969 C22.6850048 0.0141627 26.14470221 0.00432052 29.60507202 -0.01364708 C32.90601056 -0.02709657 36.20686486 -0.01767885 39.5078125 -0.01025391 C40.75159668 -0.0163266 41.99538086 -0.02239929 43.27685547 -0.02865601 C45.00379639 -0.01447128 45.00379639 -0.01447128 46.765625 0 C47.78027832 0.00238678 48.79493164 0.00477356 49.84033203 0.00723267 C52.86256059 0.46006634 53.54883924 0.99860036 55.3828125 3.38818359 C55.75540799 5.58820742 55.75540799 5.58820742 55.75195599 8.2082777 C55.75792913 9.20701859 55.76390228 10.20575947 55.77005643 11.23476523 C55.7613179 12.33494697 55.75257938 13.43512871 55.74357605 14.56864929 C55.74613932 15.73502499 55.7487026 16.90140069 55.75134355 18.1031211 C55.75543901 21.34592481 55.74603164 24.58837112 55.73100936 27.83113253 C55.71807892 31.32600001 55.72243633 34.8208502 55.72471619 38.31573486 C55.72629082 44.37260088 55.71686181 50.42937011 55.70000267 56.48621178 C55.67564293 65.24341996 55.66781051 74.00058124 55.6640387 82.75781963 C55.65746945 96.96511919 55.63749548 111.17236714 55.60913086 125.37963867 C55.58160252 139.18237042 55.56036295 152.98508815 55.54760742 166.7878418 C55.54681925 167.63834737 55.54603108 168.48885294 55.54521903 169.3651314 C55.54130397 173.63177972 55.53751283 177.89842813 55.53378332 182.16507661 C55.50267268 217.57282478 55.44736168 252.9804775 55.3828125 288.38818359 C34.2628125 288.38818359 13.1428125 288.38818359 -8.6171875 288.38818359 C-8.6832836 252.13192868 -8.73869151 215.87573044 -8.77038349 179.61943255 C-8.77413576 175.34223553 -8.77801871 171.06503863 -8.78198242 166.7878418 C-8.78276935 165.93630352 -8.78355628 165.08476524 -8.78436706 164.20742277 C-8.79743267 150.4066289 -8.82109284 136.60587239 -8.84864589 122.8051007 C-8.87666801 108.65168323 -8.89335698 94.49828538 -8.89945298 80.3448413 C-8.90357607 71.60642562 -8.91661372 62.86811554 -8.9409369 54.12973235 C-8.95675471 48.14324216 -8.96159687 42.15680682 -8.95769163 36.17029723 C-8.95576388 32.71272311 -8.95878667 29.25533394 -8.97480392 25.79779243 C-8.98962941 22.05459471 -8.98617727 18.31185665 -8.97795105 14.56864929 C-8.98668957 13.46846755 -8.9954281 12.36828581 -9.00443143 11.23476523 C-8.99845828 10.23602435 -8.99248514 9.23728346 -8.98633099 8.2082777 C-8.98747015 7.34365451 -8.98860931 6.47903132 -8.98978299 5.58820742 C-8.1059815 0.36972146 -4.69719514 0.01104926 0 0 Z " fill="#FED301" transform="translate(232.6171875,208.61181640625)"/>
<path d="M0 0 C0.80060349 0.00007553 1.60120697 0.00015106 2.42607117 0.00022888 C3.71527214 0.00797081 3.71527214 0.00797081 5.03051758 0.01586914 C5.91411453 0.01728409 6.79771149 0.01869904 7.70808411 0.02015686 C10.53044011 0.0257547 13.3527168 0.03830678 16.17504883 0.05102539 C18.08845914 0.05604067 20.0018707 0.06060353 21.9152832 0.06469727 C26.60606897 0.07572342 31.29679545 0.09298656 35.98754883 0.11352539 C34.76956595 0.90276386 34.76956595 0.90276386 33.52697736 1.70794654 C30.74248183 3.8899159 30.74248183 3.8899159 30.36014432 7.07253861 C30.35900516 8.23752059 30.357866 9.40250256 30.35669231 10.60278702 C30.34923472 11.25573789 30.34177712 11.90868876 30.33409354 12.58142602 C30.31511643 14.77907861 30.33186157 16.97501612 30.34831238 19.17266846 C30.34200351 20.76005392 30.33350238 22.34743194 30.32299215 23.93479514 C30.30043181 28.30413199 30.30907159 32.67294237 30.32267773 37.04229593 C30.3319202 41.7512464 30.31241089 46.46008648 30.2963562 51.16900635 C30.27248481 59.32993796 30.26691534 67.49071852 30.27370262 75.65167999 C30.28348957 87.45109152 30.26578956 99.25033517 30.24133531 111.04971954 C30.20241056 130.19241111 30.18578069 149.33505478 30.18310547 168.4777832 C30.18045882 187.07546446 30.16735311 205.67308972 30.14013672 224.27075195 C30.13762665 225.98968507 30.13762665 225.98968507 30.13506588 227.7433441 C30.12660653 233.49214519 30.1179411 239.24094594 30.10917318 244.98974657 C30.03667707 292.69766677 30.00170671 340.40555521 29.98754883 388.11352539 C16.78754883 388.11352539 3.58754883 388.11352539 -10.01245117 388.11352539 C-10.0802242 339.38968482 -10.13395507 290.66585552 -10.16564716 241.94197719 C-10.16939943 236.19398406 -10.17328238 230.44599103 -10.17724609 224.69799805 C-10.17803303 223.55364183 -10.17881996 222.40928562 -10.17963073 221.23025194 C-10.19269639 202.68370829 -10.21635661 184.13719245 -10.24390956 165.59066531 C-10.27193151 146.57027901 -10.28862062 127.5499073 -10.29471666 108.5295012 C-10.29883977 96.78617902 -10.31187764 85.04293541 -10.33620057 73.29963741 C-10.35201815 65.2545831 -10.35686058 57.20956961 -10.3529553 49.16450086 C-10.35102754 44.51798997 -10.3540508 39.87161671 -10.3700676 35.22513008 C-10.38461153 30.9750427 -10.38543961 26.72518615 -10.37514786 22.47508839 C-10.37387491 20.93397299 -10.37772708 19.39284348 -10.38710072 17.85175607 C-10.39906973 15.76327497 -10.39269509 13.6756367 -10.38159466 11.58716965 C-10.38273382 10.42522544 -10.38387298 9.26328123 -10.38504666 8.06612659 C-9.97160999 4.78988291 -9.33460263 3.42656461 -7.01245117 1.11352539 C-4.30620747 0.21144416 -2.77394132 -0.0087506 0 0 Z " fill="#0193FA" transform="translate(431.012451171875,108.886474609375)"/>
<path d="M0 0 C1.03241821 0.00205444 2.06483643 0.00410889 3.12854004 0.00622559 C4.88551208 -0.00773254 4.88551208 -0.00773254 6.67797852 -0.02197266 C8.57646545 0.00262024 8.57646545 0.00262024 10.51330566 0.02770996 C11.81151245 0.02766968 13.10971924 0.02762939 14.44726562 0.02758789 C17.19470983 0.0292413 19.9413382 0.04794031 22.68859863 0.07946777 C26.20958282 0.11914714 29.72949843 0.12351363 33.25066376 0.11600494 C36.60917458 0.11219665 39.96734776 0.13301379 43.32580566 0.15270996 C44.59146362 0.15291138 45.85712158 0.15311279 47.16113281 0.15332031 C48.33244751 0.16923218 49.50376221 0.18514404 50.71057129 0.20153809 C51.7429895 0.20995728 52.77540771 0.21837646 53.83911133 0.22705078 C56.86876275 0.69011922 57.55570218 1.25666126 59.41955566 3.62145996 C59.79215115 5.50088233 59.79215115 5.50088233 59.78869915 7.66068554 C59.7946723 8.48525665 59.80064544 9.30982775 59.80679959 10.15938586 C59.79806107 11.06502019 59.78932254 11.97065451 59.78031921 12.9037323 C59.78288249 13.86593038 59.78544576 14.82812846 59.78808671 15.81948406 C59.79304554 19.05792472 59.77649692 22.29590373 59.76013184 25.53430176 C59.75928602 27.84998565 59.75975982 30.16567034 59.76145935 32.48135376 C59.76232249 38.78063199 59.74464504 45.07973994 59.72373748 51.37897849 C59.70502383 57.95734028 59.70322444 64.53570567 59.69966125 71.11408997 C59.69188666 82.15962691 59.67262954 93.20510398 59.64587402 104.25061035 C59.6183427 115.62821133 59.5971046 127.0057953 59.58435059 138.38342285 C59.58356242 139.08457864 59.58277424 139.78573443 59.58196219 140.50813737 C59.57804712 144.0255821 59.57425598 147.54302696 59.57052648 151.06047189 C59.53941943 180.24750868 59.4863511 209.43448348 59.41955566 238.62145996 C51.09226619 238.6445868 42.76499004 238.66237679 34.43767643 238.67327213 C30.57135449 238.67850022 26.70505445 238.6855965 22.83874512 238.69689941 C19.11052166 238.70773096 15.38231932 238.71373736 11.65408134 238.7163372 C10.22865911 238.71819097 8.80323808 238.72181067 7.37782478 238.72719002 C5.38792159 238.73440389 3.39799732 238.73486804 1.40808105 238.73498535 C0.27334854 238.73720596 -0.86138397 238.73942657 -2.03050232 238.74171448 C-4.58044434 238.62145996 -4.58044434 238.62145996 -5.58044434 237.62145996 C-5.68510581 234.64926295 -5.72375994 231.70008774 -5.72088623 228.72723389 C-5.72385735 227.78252314 -5.72682847 226.8378124 -5.72988963 225.86447406 C-5.73861757 222.67310903 -5.74008832 219.48178132 -5.74157715 216.29040527 C-5.74620247 214.01268432 -5.75122674 211.73496414 -5.75662231 209.45724487 C-5.76977685 203.25055503 -5.77619734 197.04387603 -5.78063297 190.83717442 C-5.7835591 186.96313136 -5.78766305 183.0890913 -5.79213715 179.21504974 C-5.80425141 168.4937867 -5.81463135 157.77252756 -5.81801224 147.05125809 C-5.8182318 146.36456521 -5.81845137 145.67787233 -5.81867759 144.97037058 C-5.81889587 144.28200804 -5.81911414 143.5936455 -5.81933904 142.88442349 C-5.81978251 141.48947732 -5.82022907 140.09453114 -5.82067871 138.69958496 C-5.82090014 138.00763939 -5.82112157 137.31569381 -5.82134971 136.60278019 C-5.82529686 125.39323466 -5.84274667 114.18375418 -5.86603823 102.97423378 C-5.8897459 91.47177635 -5.90195582 79.96936083 -5.90338016 68.4668777 C-5.90443013 62.0062134 -5.91037872 55.54564075 -5.92819977 49.08499908 C-5.94463573 43.00789711 -5.94685771 36.9309561 -5.93806076 30.85383987 C-5.93728795 28.62093043 -5.941665 26.3880125 -5.95151901 24.15512466 C-5.96416664 21.11109638 -5.95840067 18.06764433 -5.94793701 15.02362061 C-5.95599342 14.13616693 -5.96404982 13.24871325 -5.97235036 12.33436704 C-5.88434554 1.41715328 -5.88434554 1.41715328 0 0 Z " fill="#00BA66" transform="translate(327.5804443359375,258.3785400390625)"/>
<path d="M0 0 C5.05729749 3.63889018 8.42733523 7.69579307 10.4375 13.625 C11.75451758 22.0052009 11.39996521 29.47578441 6.40234375 36.53125 C1.16824992 42.10873368 -4.92310438 45.27250555 -12.578125 45.6796875 C-14.99926785 45.61296309 -17.23535041 45.30062407 -19.5625 44.625 C-19.79219482 45.29587646 -20.02188965 45.96675293 -20.25854492 46.65795898 C-21.92210706 50.44325587 -24.10998283 53.68310018 -26.42578125 57.09765625 C-26.92125458 57.83669189 -27.41672791 58.57572754 -27.92721558 59.3371582 C-29.00552331 60.94469532 -30.08588811 62.55085407 -31.1680603 64.15579224 C-34.11363941 68.52463169 -37.0442628 72.90349147 -39.9765625 77.28125 C-40.90051064 78.6594265 -40.90051064 78.6594265 -41.84312439 80.06544495 C-46.32927192 86.76346446 -50.78001481 93.48408759 -55.2109375 100.21875 C-55.83850952 101.17217285 -56.46608154 102.1255957 -57.1126709 103.10791016 C-60.22935203 107.84576412 -63.33926866 112.58791033 -66.44042969 117.3359375 C-71.43765754 124.97142812 -76.42303166 132.57996022 -81.8671875 139.90625 C-82.60557861 140.91550537 -83.34396973 141.92476074 -84.10473633 142.96459961 C-85.3881571 144.69438714 -86.70277602 146.40178153 -88.05737305 148.07641602 C-89.70540309 150.30407593 -90.83460577 151.94936323 -91.5625 154.625 C-90.96595996 157.7187892 -90.00244699 160.28132851 -88.67749023 163.13623047 C-86.2777647 168.49265747 -87.22264215 173.23363566 -89.0625 178.6875 C-91.97053189 185.3432068 -96.85908642 189.69935163 -103.5 192.5625 C-110.00357052 194.61157017 -116.38385544 194.35176738 -122.6484375 191.65625 C-128.66564896 188.41432383 -132.1044338 184.49667285 -134.8359375 178.26171875 C-135.5625 175.625 -135.5625 175.625 -135.42428589 173.64746094 C-135.33141663 170.94377836 -135.54902258 169.14782234 -136.5625 166.625 C-140.20890166 163.52116199 -144.43446744 161.58912376 -148.734375 159.55078125 C-149.97772376 158.93354229 -151.21983608 158.31380694 -152.46075439 157.69169617 C-155.06029173 156.39743668 -157.66966342 155.12685029 -160.2890625 153.87329102 C-163.64414731 152.26665221 -166.97444344 150.61506117 -170.29917526 148.94666767 C-172.86068373 147.66519417 -175.43108083 146.40251617 -178.00485992 145.145895 C-179.23659859 144.54307275 -180.46615954 143.93577936 -181.6934433 143.32393837 C-183.4101454 142.47300068 -185.13991913 141.64858933 -186.87011719 140.82543945 C-187.85083191 140.35072708 -188.83154663 139.87601471 -189.84197998 139.38691711 C-193.28899001 138.421537 -194.43205059 138.97848979 -197.5625 140.625 C-198.9431086 141.45079559 -198.9431086 141.45079559 -200.35160828 142.29327393 C-203.80381973 143.72508801 -206.01284646 143.6010532 -209.67526531 143.1693306 C-215.62668367 142.54639046 -220.6572361 142.57841886 -225.67807007 146.10900879 C-229.96970362 149.64785857 -233.76254689 153.66283329 -237.57421875 157.703125 C-239.00459509 159.15442445 -240.43865161 160.60210503 -241.87617493 162.04632568 C-244.86129041 165.06338515 -247.81496176 168.10698326 -250.74633789 171.17626953 C-254.50859789 175.11500709 -258.3199362 179.00129631 -262.15240765 182.87163162 C-265.81020443 186.5695531 -269.4432879 190.29135173 -273.07421875 194.015625 C-273.76934759 194.72470253 -274.46447643 195.43378006 -275.18066978 196.16434479 C-277.13271506 198.16469358 -279.06636218 200.1810867 -280.99487305 202.20410156 C-281.86954475 203.09422691 -281.86954475 203.09422691 -282.7618866 204.00233459 C-284.52731833 205.81924088 -284.52731833 205.81924088 -286.5625 208.625 C-286.26185889 210.64884651 -286.26185889 210.64884651 -285.5625 212.625 C-284.94353995 220.2960458 -284.6278495 227.35703167 -289.5625 233.625 C-294.25644544 238.56393215 -298.61494802 242.13349615 -305.54296875 242.99609375 C-312.62316143 243.14269944 -317.27718649 242.44734523 -323.24609375 238.5234375 C-326.59877404 237.22307246 -328.2355577 238.34241196 -331.5625 239.625 C-334.05156124 240.77794478 -336.50416213 241.95581573 -338.953125 243.1875 C-339.65153503 243.53488724 -340.34994507 243.88227448 -341.06951904 244.2401886 C-347.15618866 247.27512247 -353.21980482 250.35637857 -359.27819824 253.4473114 C-363.40173221 255.54731115 -367.54600249 257.58201683 -371.734375 259.55078125 C-379.6936973 263.0589381 -379.6936973 263.0589381 -384.859375 269.61328125 C-385.37282842 272.72401293 -385.37282842 272.72401293 -385.3828125 275.79296875 C-385.68460537 280.54948689 -388.19285055 283.43270052 -391.5625 286.625 C-397.88122905 291.48556081 -403.51859593 293.39243961 -411.5625 292.625 C-418.96033992 291.12509431 -424.22190823 287.86498186 -428.8828125 281.94921875 C-432.68431461 275.7418709 -432.35178587 268.65457726 -431.5625 261.625 C-429.85125812 254.96185195 -425.114159 250.45016542 -419.5625 246.625 C-413.80566978 243.76564724 -407.85038187 243.97950488 -401.5625 244.625 C-399.23938042 245.43224753 -397.32897503 246.35808122 -395.24609375 247.65234375 C-393.27598648 248.79052637 -391.82250353 249.29620774 -389.5625 249.625 C-387.31046837 248.92028638 -387.31046837 248.92028638 -385.02734375 247.66796875 C-383.70379883 246.99556152 -383.70379883 246.99556152 -382.35351562 246.30957031 C-381.41185547 245.81553711 -380.47019531 245.32150391 -379.5 244.8125 C-378.52353516 244.31202148 -377.54707031 243.81154297 -376.54101562 243.29589844 C-373.54065778 241.7529406 -370.55024002 240.19223303 -367.5625 238.625 C-366.68352051 238.16496582 -365.80454102 237.70493164 -364.89892578 237.23095703 C-360.04951613 234.69116201 -360.04951613 234.69116201 -355.22241211 232.109375 C-351.65964831 230.19075875 -348.13643665 228.40031627 -344.375 226.90234375 C-337.46434039 224.24072218 -337.46434039 224.24072218 -333.1796875 218.515625 C-332.39519498 215.08531 -332.39519498 215.08531 -331.98046875 211.65234375 C-331.1943927 205.9588023 -327.7741352 202.16041012 -323.30078125 198.73046875 C-317.37205963 194.96006826 -313.05417666 194.48861848 -306.22631836 195.92626953 C-300.28616814 196.38754574 -297.31663175 195.35049514 -292.90728092 191.63422966 C-289.46241172 188.42955022 -286.19338733 185.07847122 -282.94140625 181.6796875 C-281.50456301 180.23008079 -280.06480962 178.78335336 -278.62229919 177.33938599 C-275.61793978 174.31658876 -272.63995655 171.27078651 -269.68041992 168.20410156 C-265.88288734 164.27019858 -262.04055359 160.38412665 -258.17984104 156.51231194 C-255.2117076 153.53091267 -252.26019298 150.53353243 -249.31431389 147.53015518 C-247.90168112 146.09086551 -246.48577843 144.65477776 -245.06659126 143.22195053 C-243.09292742 141.22122574 -241.14065997 139.20187708 -239.19360352 137.17529297 C-238.30950554 136.28820396 -238.30950554 136.28820396 -237.407547 135.38319397 C-235.6071112 133.55047263 -235.6071112 133.55047263 -233.5625 130.625 C-233.55037517 127.90303731 -233.55037517 127.90303731 -234.5625 125.625 C-235.24555598 118.23455826 -234.80930981 111.88904448 -230.5625 105.625 C-224.8584472 99.51184506 -219.64134783 96.25706461 -211.28125 95.60546875 C-203.6820506 95.6600607 -197.70145689 98.37802116 -192.25390625 103.60546875 C-188.44644715 108.15155733 -186.5625 112.63256812 -186.5625 118.56640625 C-186.24126755 121.34663906 -185.91881134 122.31706641 -183.77514648 124.16967773 C-181.23756565 125.64523694 -178.6687642 126.90249955 -176 128.125 C-175.04633545 128.59147949 -174.0926709 129.05795898 -173.11010742 129.53857422 C-171.17473433 130.48299868 -169.23337847 131.41526485 -167.28613281 132.33496094 C-164.2566024 133.76988732 -161.26515699 135.26950937 -158.27661133 136.78735352 C-156.37948066 137.74773177 -154.47413087 138.68977493 -152.56640625 139.62890625 C-149.5947636 141.09787304 -146.65208214 142.61577309 -143.71484375 144.15234375 C-142.89846436 144.57435059 -142.08208496 144.99635742 -141.2409668 145.43115234 C-139.65545027 146.2514065 -138.07460998 147.08078175 -136.49926758 147.92041016 C-135.424552 148.47220947 -135.424552 148.47220947 -134.328125 149.03515625 C-133.69680664 149.36652588 -133.06548828 149.69789551 -132.41503906 150.03930664 C-128.73874775 151.2015922 -125.80278786 149.2942392 -122.5625 147.625 C-118.63901771 145.73258055 -116.3538555 145.7308272 -112.08984375 146.2109375 C-108.67505336 145.95142802 -106.46486653 145.48762297 -103.94805908 143.08166504 C-99.41952986 137.55101756 -95.83125789 131.34403356 -92.125 125.25 C-90.87361229 123.26071905 -89.6175941 121.27434414 -88.35717773 119.29077148 C-86.3983971 116.20602243 -84.44324357 113.11945553 -82.50282288 110.02311707 C-76.21656082 99.99447397 -69.62729215 90.1848583 -62.97018433 80.39984131 C-61.18760049 77.77952001 -59.40929662 75.15636314 -57.63305664 72.53173828 C-57.07106064 71.70150146 -56.50906464 70.87126465 -55.93003845 70.01586914 C-54.82388383 68.37873573 -53.71972431 66.74025231 -52.61769104 65.1003418 C-49.63333047 60.66247903 -46.60976718 56.25791562 -43.53466797 51.88232422 C-42.21965217 49.98279889 -40.9047089 48.08322335 -39.58984375 46.18359375 C-38.95768448 45.30131607 -38.32552521 44.41903839 -37.67420959 43.51002502 C-37.10617111 42.68228073 -36.53813263 41.85453644 -35.95288086 41.00170898 C-35.44220566 40.27580063 -34.93153046 39.54989227 -34.40538025 38.80198669 C-33.28345162 36.57396936 -33.28345162 36.57396936 -34.36915588 34.02845764 C-34.76295944 33.23531662 -35.156763 32.4421756 -35.5625 31.625 C-37.94811121 22.01628819 -38.04533485 15.48224538 -33 6.9375 C-25.36443253 -3.62077272 -11.58989698 -6.14509644 0 0 Z " fill="#FE983A" transform="translate(466.5625,2.375)"/>
<path d="M0 0 C1.13119766 -0.00938095 2.26239532 -0.0187619 3.4278717 -0.02842712 C5.25299538 -0.01157616 5.25299538 -0.01157616 7.11499023 0.00561523 C8.36738998 0.00416 9.61978973 0.00270477 10.91014099 0.00120544 C13.55767706 0.00286561 16.20377663 0.01235491 18.85107422 0.03515625 C22.24309603 0.06357077 25.63421841 0.06079445 29.02630711 0.04806614 C32.26425954 0.0394386 35.50206601 0.05455272 38.73999023 0.06811523 C39.95876358 0.0651796 41.17753693 0.06224396 42.4332428 0.05921936 C43.5612883 0.07190353 44.6893338 0.08458771 45.8515625 0.09765625 C46.84543472 0.10305923 47.83930695 0.10846222 48.86329651 0.11402893 C51.77430244 0.56584437 52.63954601 1.15256536 54.36108398 3.50170898 C55.52661983 6.99831653 55.49967706 10.12872853 55.48806763 13.76516724 C55.49040761 14.88276359 55.49040761 14.88276359 55.49279487 16.02293766 C55.49679241 18.52646081 55.49362005 21.02992363 55.49047852 23.53344727 C55.49183308 25.32534826 55.49361333 27.11724898 55.49578857 28.90914917 C55.50035562 33.78079105 55.4985765 38.6524118 55.49540949 43.52405405 C55.49288293 48.61384546 55.49522418 53.70363503 55.49679565 58.79342651 C55.49861615 67.33958258 55.49621383 75.88573001 55.49145508 84.43188477 C55.48600921 94.32657504 55.48777795 104.22124472 55.49328148 114.11593449 C55.49781188 122.59916935 55.49846363 131.08239798 55.49584281 139.56563365 C55.49428008 144.63776479 55.49408624 149.70988623 55.4973793 154.78201675 C55.50025707 159.54749395 55.49828408 164.31294444 55.49248505 169.07841873 C55.49115709 170.83246313 55.49155217 172.58650976 55.49374771 174.34055328 C55.49645774 176.72447239 55.49307997 179.10830453 55.48806763 181.49221802 C55.49141371 182.5470081 55.49141371 182.5470081 55.49482739 183.62310708 C55.47523408 188.38755888 55.47523408 188.38755888 54.36108398 189.50170898 C52.36676669 189.5957604 50.36908856 189.61914148 48.37255859 189.61523438 C47.091306 189.61515884 45.81005341 189.61508331 44.48997498 189.61500549 C43.08112551 189.60989808 41.67227643 189.60468207 40.26342773 189.59936523 C38.82996164 189.59750101 37.39649491 189.59607713 35.96302795 189.59507751 C32.18348442 189.59125271 28.40397909 189.58142275 24.62445068 189.57037354 C20.770391 189.56015861 16.91632517 189.55557972 13.06225586 189.55053711 C5.49518112 189.53980044 -2.0718621 189.52272448 -9.63891602 189.50170898 C-9.73229124 165.44982632 -9.80286182 141.39797076 -9.8461647 117.34594345 C-9.86680397 106.17856544 -9.89495067 95.01129994 -9.94067383 83.84399414 C-9.98049977 74.1123819 -10.00633889 64.38085113 -10.01526999 54.64915967 C-10.02049193 49.49462886 -10.03279373 44.34033115 -10.06183624 39.18587494 C-10.08893829 34.33663184 -10.09737156 29.4877184 -10.09134674 24.63840675 C-10.09244931 22.85658033 -10.10043418 21.07474315 -10.11573792 19.2929821 C-10.13558478 16.86359441 -10.13087529 14.43545798 -10.11993408 12.00604248 C-10.13158545 11.29786841 -10.14323681 10.58969434 -10.15524125 9.86006045 C-10.1141323 6.49259271 -9.84546913 4.77154254 -7.77290058 2.06401348 C-5.02447289 0.05187103 -3.38904346 0.00056617 0 0 Z " fill="#FF9839" transform="translate(134.638916015625,307.498291015625)"/>
<path d="M0 0 C1.0447348 -0.00960754 2.0894696 -0.01921509 3.16586304 -0.02911377 C4.8580748 -0.03548859 4.8580748 -0.03548859 6.58447266 -0.04199219 C8.32490341 -0.0505423 8.32490341 -0.0505423 10.10049438 -0.05926514 C12.55673307 -0.06871642 15.01298444 -0.07524962 17.46923828 -0.07910156 C21.22662456 -0.08881057 24.98346471 -0.11983499 28.74072266 -0.15136719 C31.12613607 -0.15789691 33.5115534 -0.1631475 35.89697266 -0.16699219 C37.58311172 -0.18551239 37.58311172 -0.18551239 39.30331421 -0.20440674 C40.35435333 -0.20140564 41.40539246 -0.19840454 42.48828125 -0.1953125 C43.8703627 -0.20078094 43.8703627 -0.20078094 45.28036499 -0.20635986 C48.42429004 0.23918337 50.31097642 1.31602307 52.87353516 3.16113281 C54.17027306 5.75460861 53.9964846 7.6216301 53.99378967 10.52676392 C53.99585167 12.2347541 53.99585167 12.2347541 53.99795532 13.97724915 C53.99256241 15.85998787 53.99256241 15.85998787 53.98706055 17.78076172 C53.98720657 19.0977858 53.9873526 20.41480988 53.98750305 21.77174377 C53.98779067 25.38929212 53.98189974 29.0068075 53.97492909 32.62434816 C53.96868958 36.40267044 53.96809128 40.18099343 53.96690369 43.95932007 C53.96379214 51.11682777 53.95558112 58.27432024 53.9455542 65.43182123 C53.93230075 75.10184075 53.92689173 84.77186441 53.92105198 94.44189072 C53.91164112 109.68164949 53.89172102 124.92137614 53.87353516 140.16113281 C32.42353516 140.16113281 10.97353516 140.16113281 -11.12646484 140.16113281 C-11.24737395 106.46779621 -11.24737395 106.46779621 -11.27294922 92.36816406 C-11.29076261 82.62576571 -11.31172414 72.8834451 -11.3527832 63.14111328 C-11.3826697 56.04638685 -11.40203606 48.95172337 -11.40873033 41.85693574 C-11.41264388 38.0997121 -11.42185192 34.34266858 -11.44365501 30.58550262 C-11.46778824 26.39285771 -11.46843532 22.20052662 -11.46704102 18.0078125 C-11.47782684 16.7598439 -11.48861267 15.51187531 -11.49972534 14.22608948 C-11.49560135 13.08468002 -11.49147736 11.94327057 -11.48722839 10.76727295 C-11.48999377 9.7754237 -11.49275915 8.78357445 -11.49560833 7.76166916 C-11.06208918 4.70762016 -10.26391141 3.35912793 -8.12646484 1.16113281 C-5.13713852 0.16469071 -3.1233954 0.02318617 0 0 Z " fill="#FF4756" transform="translate(37.12646484375,356.8388671875)"/>
<path d="M0 0 C0.78568359 -0.00064453 1.57136719 -0.00128906 2.38085938 -0.00195312 C3.59805664 0.02801758 3.59805664 0.02801758 4.83984375 0.05859375 C5.65517578 0.05150391 6.47050781 0.04441406 7.31054688 0.03710938 C13.26125684 0.10067489 13.26125684 0.10067489 15.37486249 1.72009116 C17.21051011 4.04462484 17.1503656 5.3725083 17.14648724 8.31618786 C17.15246038 9.31492874 17.15843353 10.31366963 17.16458768 11.34267539 C17.15584915 12.44285713 17.14711063 13.54303887 17.1381073 14.67655945 C17.14067057 15.84293515 17.14323385 17.00931084 17.1458748 18.21103126 C17.14997026 21.45383497 17.14056289 24.69628128 17.12554061 27.93904269 C17.11261017 31.43391017 17.11696758 34.92876035 17.11924744 38.42364502 C17.12082207 44.48051104 17.11139306 50.53728026 17.09453392 56.59412193 C17.07017418 65.35133012 17.06234176 74.10849139 17.05856995 82.86572979 C17.0520007 97.07302935 17.03202673 111.2802773 17.00366211 125.48754883 C16.97613377 139.29028057 16.9548942 153.09299831 16.94213867 166.89575195 C16.9413505 167.74625752 16.94056233 168.59676309 16.93975028 169.47304156 C16.93583522 173.73968987 16.93204408 178.00633829 16.92831457 182.27298677 C16.89720393 217.68073493 16.84189293 253.08838766 16.77734375 288.49609375 C-4.34265625 288.49609375 -25.46265625 288.49609375 -47.22265625 288.49609375 C-47.22265625 288.16609375 -47.22265625 287.83609375 -47.22265625 287.49609375 C-34.35265625 287.49609375 -21.48265625 287.49609375 -8.22265625 287.49609375 C-8.2315387 283.95953064 -8.24042114 280.42296753 -8.24957275 276.77923584 C-8.32912648 244.36710225 -8.38886344 211.9549822 -8.42691757 179.54277258 C-8.43192055 175.29690679 -8.43709782 171.05104123 -8.44238281 166.80517578 C-8.44343205 165.95988104 -8.4444813 165.1145863 -8.44556233 164.24367657 C-8.46297954 150.54700695 -8.49452445 136.85040432 -8.53126743 123.15377447 C-8.56864029 109.10544517 -8.59088435 95.05715102 -8.59901023 81.00877404 C-8.60450561 72.33635012 -8.62187781 63.66411551 -8.65432212 54.99174985 C-8.67542493 49.04916153 -8.68186594 43.10667144 -8.67666176 37.16404834 C-8.67409333 33.73262134 -8.67809975 30.3015257 -8.69947815 26.87015724 C-8.71927107 23.15346564 -8.71463368 19.43759538 -8.70367432 15.72088623 C-8.71532568 14.63139923 -8.72697705 13.54191223 -8.73898149 12.41941047 C-8.68063714 5.13925462 -8.68063714 5.13925462 -6.32126999 1.82590103 C-3.98880052 0.34790876 -2.74205891 -0.0071158 0 0 Z " fill="#FDE458" transform="translate(271.22265625,208.50390625)"/>
<path d="M0 0 C0.78568359 -0.00064453 1.57136719 -0.00128906 2.38085938 -0.00195312 C3.59805664 0.02801758 3.59805664 0.02801758 4.83984375 0.05859375 C5.65517578 0.05150391 6.47050781 0.04441406 7.31054688 0.03710938 C13.28131458 0.10088915 13.28131458 0.10088915 15.37486249 1.76889545 C17.08581837 3.87598962 17.15077827 4.8505622 17.14648724 7.53531933 C17.15246038 8.35989043 17.15843353 9.18446154 17.16458768 10.03401965 C17.15147989 11.39247114 17.15147989 11.39247114 17.1381073 12.77836609 C17.14067057 13.74056417 17.14323385 14.70276225 17.1458748 15.69411784 C17.15083362 18.93255851 17.13428501 22.17053752 17.11791992 25.40893555 C17.1170741 27.72461944 17.1175479 30.04030413 17.11924744 32.35598755 C17.12011058 38.65526578 17.10243313 44.95437373 17.08152556 51.25361228 C17.06281192 57.83197407 17.06101252 64.41033946 17.05744934 70.98872375 C17.04967474 82.0342607 17.03041763 93.07973777 17.00366211 104.12524414 C16.97613079 115.50284512 16.95489268 126.88042909 16.94213867 138.25805664 C16.9413505 138.95921243 16.94056233 139.66036822 16.93975028 140.38277116 C16.9358352 143.90021589 16.93204407 147.41766075 16.92831457 150.93510568 C16.89720751 180.12214359 16.84353713 209.30911496 16.77734375 238.49609375 C8.52734375 238.49609375 0.27734375 238.49609375 -8.22265625 238.49609375 C-8.31304655 208.75399456 -8.38467564 179.0119105 -8.42691757 149.26970382 C-8.43192051 145.75988044 -8.43709779 142.25005734 -8.44238281 138.74023438 C-8.44343205 138.04147976 -8.4444813 137.34272515 -8.44556233 136.62279615 C-8.46297659 125.30256751 -8.49451986 113.98241996 -8.53126743 102.66223946 C-8.56864854 91.05021605 -8.5905866 79.43823999 -8.59901023 67.82615924 C-8.60423431 61.30231183 -8.61654996 54.77864847 -8.64557648 48.25485992 C-8.67265816 42.11865857 -8.68111585 35.98271768 -8.67508698 29.84646225 C-8.67619046 27.5905478 -8.68418714 25.33462495 -8.69947815 23.07876205 C-8.71929227 20.00573688 -8.71462644 16.93370343 -8.70367432 13.86065674 C-8.71532568 12.9618262 -8.72697705 12.06299567 -8.73898149 11.13692784 C-8.68067693 5.11130385 -8.68067693 5.11130385 -6.32126999 1.94216537 C-3.97799068 0.32750439 -2.81807554 -0.00731307 0 0 Z " fill="#42CA8E" transform="translate(370.22265625,258.50390625)"/>
<path d="M0 0 C5.05729749 3.63889018 8.42733523 7.69579307 10.4375 13.625 C11.75451758 22.0052009 11.39996521 29.47578441 6.40234375 36.53125 C1.16824992 42.10873368 -4.92310438 45.27250555 -12.578125 45.6796875 C-14.99926785 45.61296309 -17.23535041 45.30062407 -19.5625 44.625 C-19.79219482 45.29587646 -20.02188965 45.96675293 -20.25854492 46.65795898 C-21.92210706 50.44325587 -24.10998283 53.68310018 -26.42578125 57.09765625 C-26.92125458 57.83669189 -27.41672791 58.57572754 -27.92721558 59.3371582 C-29.00552331 60.94469532 -30.08588811 62.55085407 -31.1680603 64.15579224 C-34.11363941 68.52463169 -37.0442628 72.90349147 -39.9765625 77.28125 C-40.90051064 78.6594265 -40.90051064 78.6594265 -41.84312439 80.06544495 C-46.32927192 86.76346446 -50.78001481 93.48408759 -55.2109375 100.21875 C-55.83850952 101.17217285 -56.46608154 102.1255957 -57.1126709 103.10791016 C-60.22935203 107.84576412 -63.33926866 112.58791033 -66.44042969 117.3359375 C-71.43765754 124.97142812 -76.42303166 132.57996022 -81.8671875 139.90625 C-82.60557861 140.91550537 -83.34396973 141.92476074 -84.10473633 142.96459961 C-85.3881571 144.69438714 -86.70277602 146.40178153 -88.05737305 148.07641602 C-89.70540309 150.30407593 -90.83460577 151.94936323 -91.5625 154.625 C-90.96595996 157.7187892 -90.00244699 160.28132851 -88.67749023 163.13623047 C-86.2777647 168.49265747 -87.22264215 173.23363566 -89.0625 178.6875 C-91.97053189 185.3432068 -96.85908642 189.69935163 -103.5 192.5625 C-110.00357052 194.61157017 -116.38385544 194.35176738 -122.6484375 191.65625 C-128.59376109 188.45305525 -132.44487848 184.44311605 -134.90234375 178.11328125 C-136.82615933 170.86197639 -136.17229344 164.27945946 -132.75 157.625 C-128.89919232 151.13942917 -124.79945692 147.62014937 -117.5625 145.625 C-116.25829102 145.77231567 -116.25829102 145.77231567 -114.92773438 145.92260742 C-111.20123385 146.32742454 -109.06264574 146.04800081 -105.5625 144.625 C-99.91571281 139.22303392 -96.15049878 131.86894703 -92.125 125.25 C-90.87361229 123.26071905 -89.6175941 121.27434414 -88.35717773 119.29077148 C-86.3983971 116.20602243 -84.44324357 113.11945553 -82.50282288 110.02311707 C-76.21656082 99.99447397 -69.62729215 90.1848583 -62.97018433 80.39984131 C-61.18760049 77.77952001 -59.40929662 75.15636314 -57.63305664 72.53173828 C-57.07106064 71.70150146 -56.50906464 70.87126465 -55.93003845 70.01586914 C-54.82388383 68.37873573 -53.71972431 66.74025231 -52.61769104 65.1003418 C-49.63333047 60.66247903 -46.60976718 56.25791562 -43.53466797 51.88232422 C-42.21965217 49.98279889 -40.9047089 48.08322335 -39.58984375 46.18359375 C-38.95768448 45.30131607 -38.32552521 44.41903839 -37.67420959 43.51002502 C-37.10617111 42.68228073 -36.53813263 41.85453644 -35.95288086 41.00170898 C-35.44220566 40.27580063 -34.93153046 39.54989227 -34.40538025 38.80198669 C-33.28345162 36.57396936 -33.28345162 36.57396936 -34.36915588 34.02845764 C-34.76295944 33.23531662 -35.156763 32.4421756 -35.5625 31.625 C-37.94811121 22.01628819 -38.04533485 15.48224538 -33 6.9375 C-25.36443253 -3.62077272 -11.58989698 -6.14509644 0 0 Z " fill="#B1DBFC" transform="translate(466.5625,2.375)"/>
<path d="M0 0 C0.74056641 -0.00386719 1.48113281 -0.00773437 2.24414062 -0.01171875 C3.00791016 -0.00011719 3.77167969 0.01148438 4.55859375 0.0234375 C5.32623047 0.01183594 6.09386719 0.00023437 6.88476562 -0.01171875 C12.43555783 0.01731765 12.43555783 0.01731765 14.9609375 1.734375 C17.33942906 5.55791238 17.13690733 9.3299257 17.12307739 13.66189575 C17.12541738 14.77949211 17.12541738 14.77949211 17.12780464 15.91966617 C17.13180218 18.42318933 17.12862982 20.92665214 17.12548828 23.43017578 C17.12684285 25.22207678 17.1286231 27.0139775 17.13079834 28.80587769 C17.13536539 33.67751956 17.13358626 38.54914031 17.13041925 43.42078257 C17.12789269 48.51057398 17.13023395 53.60036355 17.13180542 58.69015503 C17.13362591 67.2363111 17.1312236 75.78245853 17.12646484 84.32861328 C17.12101898 94.22330355 17.12278772 104.11797323 17.12829125 114.01266301 C17.13282165 122.49589786 17.13347339 130.9791265 17.13085258 139.46236217 C17.12928985 144.53449331 17.12909601 149.60661475 17.13238907 154.67874527 C17.13526684 159.44422246 17.13329385 164.20967296 17.12749481 168.97514725 C17.12616685 170.72919165 17.12656193 172.48323827 17.12875748 174.2372818 C17.1314675 176.62120091 17.12808974 179.00503305 17.12307739 181.38894653 C17.12642348 182.44373662 17.12642348 182.44373662 17.12983716 183.51983559 C17.11024385 188.2842874 17.11024385 188.2842874 15.99609375 189.3984375 C14.00177645 189.49248892 12.00409832 189.51586999 10.00756836 189.51196289 C8.72631577 189.51188736 7.44506317 189.51181183 6.12498474 189.51173401 C4.71613527 189.50662659 3.30728619 189.50141059 1.8984375 189.49609375 C0.46497141 189.49422952 -0.96849532 189.49280564 -2.40196228 189.49180603 C-6.18150582 189.48798122 -9.96101115 189.47815127 -13.74053955 189.46710205 C-17.59459923 189.45688713 -21.44866507 189.45230824 -25.30273438 189.44726562 C-32.86980912 189.43652896 -40.43685234 189.41945299 -48.00390625 189.3984375 C-48.00390625 189.0684375 -48.00390625 188.7384375 -48.00390625 188.3984375 C-34.80390625 188.3984375 -21.60390625 188.3984375 -8.00390625 188.3984375 C-8.03532715 180.01570435 -8.03532715 180.01570435 -8.06738281 171.46362305 C-8.13353764 153.03939933 -8.17799903 134.61517107 -8.21115494 116.19085979 C-8.23179922 105.01560612 -8.25995545 93.84046478 -8.30566406 82.6652832 C-8.34547472 72.92745463 -8.37132547 63.18970738 -8.38026023 53.45179969 C-8.38548477 48.29338854 -8.39780298 43.13521012 -8.42682648 37.9768734 C-8.45390444 33.12517112 -8.46236673 28.27379825 -8.45633698 23.42202759 C-8.45744064 21.63816859 -8.46543978 19.85429897 -8.48072815 18.07050514 C-8.50053742 15.64076635 -8.49587944 13.21228238 -8.48492432 10.78251648 C-8.49657568 10.07142957 -8.50822705 9.36034266 -8.52023149 8.62770766 C-8.48062348 5.3930932 -8.41487091 3.81589268 -6.09678268 1.46119404 C-3.86352729 0.32715347 -2.48864413 0.01252823 0 0 Z " fill="#FEA75D" transform="translate(173.00390625,307.6015625)"/>
<path d="M0 0 C4.39964406 4.06187611 7.7555183 8.02648786 9 14 C8.97099609 15.90265625 8.97099609 15.90265625 8.94140625 17.84375 C9.29246469 20.6470926 9.63054288 21.68009929 11.79101562 23.55078125 C14.32804302 25.02170607 16.89627638 26.278644 19.5625 27.5 C20.99517212 28.20080688 20.99517212 28.20080688 22.45678711 28.91577148 C24.39362111 29.86093611 26.33643689 30.79394524 28.28515625 31.71435547 C31.27787256 33.13158965 34.23287921 34.61258304 37.18530273 36.11132812 C39.06772704 37.06514853 40.9563699 38.0052931 42.84765625 38.94140625 C47.90585594 41.44609756 52.95233537 43.97416411 58 46.5 C59.72913543 47.3646458 61.45829935 48.22923465 63.1875 49.09375 C64.45833333 49.72916667 65.72916667 50.36458333 67 51 C66.690625 51.61278809 66.38125 52.22557617 66.0625 52.85693359 C64.58199542 55.84311678 63.3040474 58.91001353 62 61.9765625 C61 64 61 64 59 66 C58.30953079 65.64477264 57.61906158 65.28954529 56.90766907 64.92355347 C50.39902364 61.5790638 43.88190927 58.25199384 37.35458088 54.94413567 C33.99909171 53.24290654 30.64727902 51.53514558 27.30297852 49.81201172 C24.07537429 48.14931482 20.83929106 46.50436567 17.5965786 44.87134171 C16.36102334 44.24524933 15.1286543 43.61282772 13.89962196 42.97402573 C12.17772418 42.08041544 10.44320053 41.21126215 8.70825195 40.34326172 C7.72452103 39.8414035 6.7407901 39.33954529 5.72724915 38.82247925 C2.26133092 37.77723341 1.15796356 38.32717005 -2 40 C-2.92026978 40.55071167 -3.84053955 41.10142334 -4.78869629 41.66882324 C-8.24427551 43.10125915 -10.45309742 42.9726445 -14.11814117 42.53716278 C-20.07243581 41.90999022 -25.09572868 41.93690968 -30.0949707 45.51147461 C-34.36108514 49.09036904 -38.12137736 53.14530038 -41.90625 57.21875 C-43.32889484 58.6801212 -44.75577593 60.13737915 -46.18664551 61.59069824 C-49.91593753 65.39949513 -53.58877031 69.25827164 -57.25091553 73.13153076 C-61.73089513 77.84931438 -66.27508448 82.50513637 -70.80974579 87.1702652 C-74.33088739 90.79508422 -77.8417222 94.42830366 -81.3248291 98.08972168 C-81.9625676 98.75708847 -82.60030609 99.42445526 -83.25737 100.11204529 C-84.45120513 101.36232446 -85.64101766 102.61646119 -86.8261261 103.87501526 C-88.17891774 105.28790495 -89.58455913 106.64987792 -91 108 C-91.66 108 -92.32 108 -93 108 C-94.11328125 106.57421875 -94.11328125 106.57421875 -95.3125 104.6875 C-97.48057054 101.4999201 -99.47721121 99.71106884 -103 98 C-102.12892462 93.33956579 -99.2981093 90.94082988 -95.99560547 87.75024414 C-95.36962463 87.13346298 -94.7436438 86.51668182 -94.09869385 85.88121033 C-92.73937543 84.54334597 -91.37672533 83.20886026 -90.01116562 81.87736702 C-87.85252621 79.77084896 -85.70465126 77.65390268 -83.55960083 75.53355408 C-77.45963688 69.50700922 -71.34316022 63.49743142 -65.21337891 57.5012207 C-61.46487208 53.83292916 -57.73099717 50.15026673 -54.00583267 46.45828056 C-52.58162991 45.05273792 -51.1517559 43.65291843 -49.71624374 42.2589283 C-47.71227151 40.31242199 -45.72730107 38.34829407 -43.74560547 36.37915039 C-42.84489822 35.51787033 -42.84489822 35.51787033 -41.92599487 34.63919067 C-40.091876 32.86112388 -40.091876 32.86112388 -38 30 C-37.98000487 27.284691 -37.98000487 27.284691 -39 25 C-39.68305598 17.60955826 -39.24680981 11.26404448 -35 5 C-25.40095894 -5.28749687 -12.07515967 -8.5655096 0 0 Z " fill="#FED304" transform="translate(271,103)"/>
<path d="M0 0 C7.45639508 -0.07608273 14.91269 -0.12861377 22.36938477 -0.16479492 C24.90588115 -0.17987863 27.44235148 -0.20034831 29.97875977 -0.22631836 C33.62522822 -0.26271881 37.27135173 -0.27973082 40.91796875 -0.29296875 C42.61822456 -0.31619453 42.61822456 -0.31619453 44.35282898 -0.33988953 C45.41355118 -0.34011612 46.47427338 -0.34034271 47.56713867 -0.34057617 C48.49757492 -0.34723801 49.42801117 -0.35389984 50.38664246 -0.36076355 C53.54668729 0.07546799 55.42748948 1.14409761 58 3 C59.2967379 5.5934758 59.12294945 7.46049729 59.12025452 10.3656311 C59.12231651 12.07362129 59.12231651 12.07362129 59.12442017 13.81611633 C59.11902725 15.69885506 59.11902725 15.69885506 59.11352539 17.61962891 C59.11367142 18.93665298 59.11381744 20.25367706 59.1139679 21.61061096 C59.11425551 25.22815931 59.10836458 28.84567469 59.10139394 32.46321535 C59.09515442 36.24153763 59.09455613 40.01986062 59.09336853 43.79818726 C59.09025698 50.95569495 59.08204596 58.11318743 59.07201904 65.27068841 C59.05876559 74.94070793 59.05335657 84.6107316 59.04751682 94.2807579 C59.03810597 109.52051668 59.01818587 124.76024332 59 140 C37.55 140 16.1 140 -6 140 C-6 139.67 -6 139.34 -6 139 C7.2 139 20.4 139 34 139 C33.98952637 134.92092285 33.97905273 130.8418457 33.96826172 126.63916016 C33.93518639 113.19217695 33.91295445 99.74519441 33.89637566 86.29818153 C33.88605289 78.14180049 33.87197353 69.98545792 33.84912109 61.82910156 C33.82921775 54.72194277 33.81629084 47.61481183 33.81182301 40.50762594 C33.80921043 36.74268546 33.80304913 32.97782469 33.78853989 29.2129097 C33.77249288 25.01511311 33.77201834 20.81745604 33.77294922 16.61962891 C33.76575867 15.36446976 33.75856812 14.10931061 33.75115967 12.81611633 C33.753909 11.67745621 33.75665833 10.53879608 33.75949097 9.3656311 C33.75764738 8.37193827 33.75580379 7.37824543 33.75390434 6.35444069 C34 4 34 4 36 2 C24.12 1.67 12.24 1.34 0 1 C0 0.67 0 0.34 0 0 Z " fill="#FE646F" transform="translate(32,357)"/>
<path d="M0 0 C6.48740345 3.89518516 11.28923554 10.87620456 13.3125 18.109375 C14.16901422 24.83301159 12.85435557 31.40326452 9 37 C4.93709951 41.77988293 -0.1647003 45.35460281 -6.375 46.5625 C-14.17688885 47.09144162 -20.91960215 45.79021049 -27.1875 40.875 C-32.90687335 35.40834315 -34.61314242 30.46890941 -34.875 22.5625 C-34.62941924 15.37158851 -33.47652512 10.81942513 -28.50390625 5.59765625 C-20.63542633 -1.67585355 -10.30700465 -4.41728771 0 0 Z " fill="#FF4856" transform="translate(69.375,248.4375)"/>
<path d="M0 0 C7.07647439 4.1267325 11.57810587 8.45165237 14.4375 16.25 C15.54364709 23.77180021 14.58620503 29.75862391 10.75 36.375 C5.87254953 42.13729768 0.03475335 45.71556681 -7.47265625 46.65234375 C-14.59155112 46.95761368 -20.35090933 45.07696306 -26 40.75 C-31.31026642 35.80428276 -33.43869422 30.05511716 -33.75 22.875 C-33.42178709 14.78285411 -30.1057037 7.9704502 -24.25 2.375 C-16.94853258 -2.35989099 -8.05167127 -3.70657207 0 0 Z " fill="#02BA67" transform="translate(364.25,149.625)"/>
<path d="M0 0 C5.05729749 3.63889018 8.42733523 7.69579307 10.4375 13.625 C11.75451758 22.0052009 11.39996521 29.47578441 6.40234375 36.53125 C1.38630508 41.87637272 -4.86672212 45.47747734 -12.28515625 45.77734375 C-20.96026588 45.19701909 -26.20673406 41.80072117 -32.53125 35.9765625 C-36.64916855 31.20927987 -37.44907267 25.7603874 -37.5625 19.625 C-36.92938614 12.26681006 -33.1366269 5.84021876 -27.6953125 0.9453125 C-19.66983293 -4.41510215 -8.43673407 -4.47325326 0 0 Z " fill="#0293FA" transform="translate(466.5625,2.375)"/>
<path d="M0 0 C3.40414403 1.13471468 4.24276648 2.17225987 6.5 4.875 C8.58734869 7.35601533 10.69291774 9.72284833 13 12 C4.43507145 20.61118125 -4.13518587 29.21701902 -12.71236992 37.81599426 C-16.69453164 41.80861236 -20.67480383 45.80307752 -24.65087891 49.80175781 C-28.48498053 53.65752176 -32.32388613 57.50844077 -36.16623306 61.35598755 C-37.63445875 62.82792091 -39.10091727 64.30161909 -40.56560898 65.77706909 C-42.61060112 67.83648823 -44.66167386 69.88965549 -46.71435547 71.94140625 C-47.62929276 72.86712936 -47.62929276 72.86712936 -48.56271362 73.81155396 C-52.77189568 78 -52.77189568 78 -55 78 C-56.11328125 76.57421875 -56.11328125 76.57421875 -57.3125 74.6875 C-59.48057054 71.4999201 -61.47721121 69.71106884 -65 68 C-64.12634537 63.33693093 -61.29243049 60.89236419 -58.01147461 57.67089844 C-57.38710007 57.04608582 -56.76272552 56.42127319 -56.11943054 55.77752686 C-54.05409966 53.71428582 -51.97834614 51.66187359 -49.90234375 49.609375 C-48.46822453 48.18085101 -47.03476627 46.75166319 -45.60194397 45.32183838 C-41.82900267 41.56035146 -38.04713897 37.80796045 -34.2633667 34.05737305 C-30.40388798 30.22858218 -26.55288776 26.39128479 -22.70117188 22.5546875 C-15.14240321 15.02809348 -7.57418433 7.51107845 0 0 Z " fill="#B0DAFB" transform="translate(233,133)"/>
<path d="M0 0 C0.18175781 0.60328125 0.36351562 1.2065625 0.55078125 1.828125 C1.91400984 6.16249282 3.21516132 9.37970971 6 13 C5 16 5 16 1.66796875 17.94189453 C0.17947904 18.68233788 -1.31447488 19.4118557 -2.8125 20.1328125 C-3.61421631 20.52894745 -4.41593262 20.9250824 -5.24194336 21.33322144 C-7.82342204 22.60663563 -10.41131198 23.86631551 -13 25.125 C-16.35612136 26.76947363 -19.70940959 28.41966966 -23.0625 30.0703125 C-23.88838623 30.47509827 -24.71427246 30.87988403 -25.56518555 31.29693604 C-32.05289498 34.49076558 -38.44926398 37.83894263 -44.79711914 41.30227661 C-49.79061944 44 -49.79061944 44 -52 44 C-52.25394531 43.33613281 -52.50789063 42.67226563 -52.76953125 41.98828125 C-53.11371094 41.10527344 -53.45789063 40.22226562 -53.8125 39.3125 C-54.14894531 38.44238281 -54.48539062 37.57226562 -54.83203125 36.67578125 C-56.01969525 33.95487877 -57.45265498 31.52949215 -59 29 C-58.37246826 28.68885254 -57.74493652 28.37770508 -57.09838867 28.05712891 C-46.30508286 22.69930792 -35.5219279 17.33192124 -24.875 11.6875 C-19.25015135 8.7076836 -13.61911084 5.74548215 -7.9375 2.875 C-6.83277344 2.31554687 -5.72804687 1.75609375 -4.58984375 1.1796875 C-2 0 -2 0 0 0 Z " fill="#B1DBFB" transform="translate(134,224)"/>
<path d="M0 0 C5.00630353 1.48161631 9.32080101 3.63817111 13.875 6.125 C19.484069 9.14041316 25.10919916 12.10398524 30.8125 14.9375 C31.44591309 15.25219238 32.07932617 15.56688477 32.73193359 15.89111328 C34.07318355 16.55659874 35.414663 17.22162184 36.75634766 17.88623047 C41.17616148 20.08026645 45.58722354 22.29185463 50 24.5 C51.72913542 25.36464582 53.45829936 26.22923462 55.1875 27.09375 C56.45833333 27.72916667 57.72916667 28.36458333 59 29 C58.690625 29.61278809 58.38125 30.22557617 58.0625 30.85693359 C56.58199542 33.84311678 55.3040474 36.91001353 54 39.9765625 C53 42 53 42 51 44 C32.52 34.76 14.04 25.52 -5 16 C-5 11.79387585 -4.08726954 10.24268751 -1.95703125 6.75 C-0.7575553 4.55667255 -0.2994682 2.47061266 0 0 Z " fill="#B1DBFB" transform="translate(279,125)"/>
<path d="M0 0 C5.4646605 3.3533144 8.95601292 6.23343423 11.25 12.3125 C12.92527666 20.54927693 12.05862799 26.62067638 8 34 C6.13451888 36.29317679 4.24990764 38.05689794 2 40 C-3.40609859 37.61289153 -6.75977657 33.48044685 -9.375 28.25 C-10.76623339 21.01558635 -11.03217228 14.32321423 -7.2890625 7.79296875 C-5.15623111 4.82639417 -2.70175149 2.45613772 0 0 Z " fill="#42CB8E" transform="translate(367,152)"/>
<path d="M0 0 C4.2215914 1.32104221 5.93842126 2.7528092 8.25 6.5 C9.00023437 7.69109375 9.00023437 7.69109375 9.765625 8.90625 C13.23869149 14.79727418 12.6999859 21.36334128 12 28 C10.17866524 32.9200486 8.16797246 36.98953087 3.29296875 39.26171875 C2.53628906 39.50535156 1.77960938 39.74898437 1 40 C-4.11821934 36.01916274 -7.67472549 32.56824649 -9 26 C-9.85035604 16.24181598 -8.40243809 10.03717487 -2.25 2.5 C-1.5075 1.675 -0.765 0.85 0 0 Z " fill="#22A7FD" transform="translate(465,3)"/>
<path d="M0 0 C6.09070566 2.6178195 9.54308577 8.25512928 12 14.25 C13.87389321 20.74691119 12.86597644 27.55637584 9.66015625 33.47265625 C7.12528587 37.02663483 5.04002623 39.2335816 1 41 C-6.47679194 33.17545029 -9.56406519 28.03454166 -9.38671875 17.0390625 C-8.52772287 10.28856961 -4.37673789 5.0251435 0 0 Z " fill="#FE656F" transform="translate(70,250)"/>
<path d="M0 0 C6.23626299 4.46698613 10.04445171 9.3318613 11.34375 17.0390625 C11.77908211 26.14475916 7.69344252 33.23788543 2 40 C-2.31745135 39.26332904 -3.93813645 37.33512659 -6.60546875 34.01953125 C-10.56330879 28.28786934 -12.20823737 21.90747024 -11 15 C-8.7087678 8.43963429 -5.68537699 3.96654208 0 0 Z " fill="#FDE459" transform="translate(269,102)"/>
<path d="M0 0 C5.84629519 3.39900883 9.8289684 7.48690519 12 14 C12.64779067 21.76286858 12.75594933 28.55743605 8 35 C6.41612426 36.83065525 4.81583154 38.38592752 3 40 C-2.56261684 38.69114898 -5.1146132 34.61114029 -8 30 C-9.98752223 24.0374333 -10.30896385 16.38236259 -8.0234375 10.4765625 C-6.79615385 8.51140279 -5.5000841 6.76355496 -4 5 C-2.8553125 3.515 -2.8553125 3.515 -1.6875 2 C-1.130625 1.34 -0.57375 0.68 0 0 Z " fill="#FEA85D" transform="translate(169,201)"/>
</svg>
